<?xml version="1.0" standalone="no"?>
<!DOCTYPE svg PUBLIC "-//W3C//DTD SVG 20010904//EN"
 "http://www.w3.org/TR/2001/REC-SVG-20010904/DTD/svg10.dtd">
<svg version="1.0" xmlns="http://www.w3.org/2000/svg"
 width="805.000000pt" height="805.000000pt" viewBox="0 0 805.000000 805.000000"
 preserveAspectRatio="xMidYMid meet">
<metadata>
Created by potrace 1.11, written by Peter Selinger 2001-2013
</metadata>
<g transform="translate(0.000000,805.000000) scale(0.100000,-0.100000)"
fill="#000000" stroke="none">
<path d="M4890 7453 c212 -142 429 -287 483 -323 l96 -65 1 -126 c0 -69 3
-208 7 -309 l6 -184 -34 21 c-168 100 -554 326 -943 552 -258 150 -478 279
-490 286 -19 13 -42 2 -296 -147 -454 -265 -1201 -698 -1206 -698 -2 0 -4 135
-4 300 l0 300 476 317 c262 175 471 319 465 321 -19 6 -267 -39 -448 -83 -581
-141 -1124 -407 -1593 -781 -170 -135 -465 -430 -598 -596 -692 -869 -953
-1939 -736 -3008 87 -424 273 -874 510 -1236 l59 -89 3 71 3 72 47 5 c26 3
206 21 399 38 l353 32 362 -32 c200 -18 387 -35 416 -38 l52 -6 0 -145 0 -145
-201 7 c-245 9 -1156 7 -1257 -2 l-72 -7 109 -130 c159 -191 118 -171 381
-184 199 -11 267 -10 593 8 202 12 385 21 407 21 l40 0 0 -143 0 -144 -427
-52 c-236 -30 -429 -54 -431 -56 -4 -4 212 -162 300 -219 l88 -56 230 45 c126
25 232 45 235 45 3 0 5 -63 5 -139 l0 -140 110 -35 c60 -20 112 -36 115 -36 3
0 5 99 5 221 l0 221 23 -5 c12 -3 119 -22 237 -42 118 -20 442 -78 720 -129
l505 -92 70 13 c39 8 360 65 715 129 355 63 657 117 673 120 l27 6 0 -226 0
-226 28 6 c30 7 371 122 445 150 50 19 61 34 25 34 -12 0 -61 5 -110 11 l-88
12 0 143 0 144 28 0 c15 0 146 -7 292 -15 146 -8 298 -15 337 -15 l73 0 122
100 c68 54 155 129 193 165 l70 66 -557 -5 -558 -6 0 145 c0 109 3 145 13 145
6 0 203 16 437 36 l424 37 260 -22 c203 -16 262 -18 274 -9 29 25 202 262 194
269 -4 3 -169 30 -367 59 l-360 52 -400 -61 c-220 -33 -417 -64 -438 -67 l-38
-6 3 148 3 147 60 14 c33 8 229 52 436 98 l377 85 418 -91 c231 -50 435 -93
454 -96 l35 -5 57 109 c201 385 335 838 384 1295 20 193 15 641 -10 818 -165
1167 -842 2154 -1896 2765 -415 241 -921 421 -1395 495 -71 11 -146 23 -165
26 -26 4 61 -59 350 -253z m-150 -1201 l735 -367 3 -272 c1 -150 -1 -273 -5
-273 -13 0 -1033 433 -1323 561 l-157 69 -129 -56 c-247 -107 -1346 -574
-1350 -574 -2 0 -3 122 -2 271 l3 271 733 369 c404 203 739 369 745 368 7 0
343 -165 747 -367z m-554 -981 c110 -38 341 -120 514 -181 173 -61 415 -147
538 -190 122 -44 227 -82 232 -85 6 -4 10 -103 10 -256 0 -234 -1 -250 -17
-245 -10 3 -43 12 -73 20 -101 28 -842 237 -1110 313 -146 41 -274 75 -285 75
-11 0 -195 -49 -410 -110 -214 -61 -538 -151 -720 -202 -181 -50 -336 -93
-342 -95 -10 -3 -13 50 -13 246 l0 249 28 11 c15 6 248 89 517 185 367 130
905 323 931 333 1 1 91 -30 200 -68z m-2425 -268 c151 -110 329 -239 396 -288
l123 -90 0 -182 c0 -101 -3 -183 -6 -183 -4 0 -189 116 -412 257 -223 141
-410 256 -416 256 -6 0 -185 -115 -398 -257 -212 -141 -389 -256 -392 -256 -3
0 -6 82 -6 183 l0 183 282 215 c565 428 510 390 534 374 12 -8 145 -103 295
-212z m5355 -515 l454 -302 0 -183 c0 -101 -4 -183 -8 -183 -4 0 -53 26 -108
58 -614 361 -798 464 -813 455 -101 -63 -838 -506 -848 -510 -10 -4 -13 29
-13 173 0 99 4 184 8 190 8 12 860 604 869 604 3 0 210 -136 459 -302z m-5329
-317 c180 -99 364 -199 408 -224 l80 -44 3 -167 c1 -91 0 -166 -3 -166 -3 0
-171 77 -373 171 -202 94 -387 180 -412 191 l-45 20 -393 -191 c-216 -105
-395 -191 -398 -191 -2 0 -3 75 -2 167 l3 168 390 222 c215 123 395 223 402
223 6 0 159 -81 340 -179z m2246 -41 c57 -14 1436 -310 1442 -310 3 0 5 -108
5 -240 l0 -241 -32 6 c-18 3 -251 37 -518 75 -267 39 -586 86 -710 104 l-225
34 -490 -73 c-269 -41 -591 -88 -715 -105 -124 -17 -237 -33 -252 -36 l-28 -6
0 241 c0 133 3 241 8 241 4 0 111 23 237 51 127 28 455 99 730 159 275 60 501
109 503 109 2 1 22 -3 45 -9z m3187 -494 l345 -174 3 -166 c1 -91 0 -166 -4
-166 -3 0 -209 86 -456 192 l-450 191 -47 -20 c-25 -11 -220 -97 -433 -192
-213 -94 -390 -171 -393 -171 -3 0 -5 74 -5 165 l0 165 38 19 c20 11 217 114
437 229 l400 209 110 -54 c60 -30 265 -132 455 -227z m-5355 -231 c209 -81
388 -149 398 -152 15 -5 17 -21 17 -160 l0 -155 -26 6 c-14 4 -201 61 -415
127 -333 102 -394 118 -422 111 -18 -5 -194 -62 -392 -126 -198 -64 -364 -116
-368 -116 -4 0 -7 69 -7 153 l0 153 388 157 c277 112 395 155 417 153 17 -2
201 -70 410 -151z m5258 -442 l447 -158 0 -152 c0 -97 -4 -153 -10 -153 -9 0
-296 80 -775 215 l-130 37 -426 -126 c-235 -69 -432 -126 -438 -126 -8 0 -11
42 -9 153 l3 152 90 34 c393 147 763 280 780 281 11 0 221 -71 468 -157z
m-2363 -38 c371 -31 685 -57 696 -60 21 -5 21 -7 16 -232 -2 -126 -6 -230 -8
-232 -2 -2 -360 2 -796 9 -604 9 -901 10 -1248 1 -250 -6 -557 -11 -682 -11
l-228 0 0 230 0 230 23 4 c32 7 310 32 617 56 146 12 389 32 540 45 151 13
302 21 335 19 33 -3 364 -29 735 -59z m-2880 -197 c212 -49 388 -92 393 -95 4
-2 7 -70 7 -149 l0 -146 -27 6 c-16 3 -203 33 -417 67 l-388 62 -377 -62
c-207 -35 -386 -65 -399 -68 l-23 -5 3 148 3 149 70 17 c565 142 714 176 740
171 17 -3 203 -45 415 -95z m1045 -818 c149 -7 284 -13 300 -15 17 -2 199 -11
405 -21 l375 -17 675 31 c371 18 701 34 733 35 l57 3 0 -232 0 -233 -32 -6
c-35 -5 -143 -18 -949 -110 l-495 -57 -635 71 c-348 39 -680 78 -735 86 -56 8
-104 15 -108 15 -3 0 -6 105 -6 233 l0 232 73 -2 c39 -1 194 -7 342 -13z"/>
</g>
</svg>
